<svg width="100%" height="100%" viewBox="0 0 800 664" version="1.1" xmlns="http://www.w3.org/2000/svg" xmlns:xlink="http://www.w3.org/1999/xlink" xml:space="preserve" xmlns:serif="http://www.serif.com/" style="fill-rule:evenodd;clip-rule:evenodd;">
    <g transform="matrix(-0.256348,0.98695,1.9144,0.497235,326.3,-192.824)">
        <path d="M220.986,88.981C192.615,91.35 165.921,98.201 162.324,93.483C154.304,82.966 169.509,62.94 180.262,60.624C190.582,57.106 205.706,73.346 225.668,82.592L220.986,88.981Z" style="fill:rgb(94,168,104);fill-rule:nonzero;stroke:black;stroke-width:2px;"/>
    </g>
    <g transform="matrix(2.32916,0,0,2.32916,-211.7,-217.331)">
        <g transform="matrix(1,0,0,1.52893,-17.8742,-148.704)">
            <path d="M249.457,283.139C280.145,261.585 307.849,213.525 290.868,180.979L300.74,179.156C317.722,211.702 311.933,252.432 287.549,283.139C264.694,283.139 251.997,283.139 249.457,283.139Z" style="fill:rgb(255,197,37);fill-rule:nonzero;stroke:black;stroke-width:1px;stroke-linecap:round;stroke-linejoin:round;"/>
        </g>
        <g transform="matrix(1,0,0,1,10.0126,-3.10736)">
            <g transform="matrix(1,0,0,1,2.61669,-6.44108)">
                <path d="M252.287,237.28C256.598,241.698 266.656,245.221 275.413,241.727" style="fill:none;fill-rule:nonzero;stroke:black;stroke-width:1px;"/>
            </g>
            <path d="M246.496,250.248C249.761,256.132 260.723,260.041 272.362,256.378" style="fill:none;fill-rule:nonzero;stroke:black;stroke-width:1px;"/>
            <g transform="matrix(1,0,0,1,-7.74532,14.4345)">
                <path d="M244.222,253.777C247.912,260.141 261.249,265.134 273.174,260.741" style="fill:none;fill-rule:nonzero;stroke:black;stroke-width:1px;"/>
            </g>
            <g transform="matrix(1,0,0,1,1.32938,-6.86848)">
                <path d="M259.917,218.497C264.181,222.004 273.429,223.742 279.89,221.403" style="fill:none;fill-rule:nonzero;stroke:black;stroke-width:1px;"/>
            </g>
            <path d="M265.429,192.521C268.925,195.321 277.547,195.826 282.645,193.627" style="fill:none;fill-rule:nonzero;stroke:black;stroke-width:1px;"/>
            <path d="M268.115,173.41C270.578,174.993 277.455,175.327 282.014,173.883" style="fill:none;fill-rule:nonzero;stroke:black;stroke-width:1px;"/>
            <g transform="matrix(1,0,0,1,2e-06,1e-06)">
                <path d="M267.957,158.089C271.017,159.621 277.177,159.357 280.276,157.615" style="fill:none;fill-rule:nonzero;stroke:black;stroke-width:1px;"/>
            </g>
        </g>
    </g>
    <g transform="matrix(2.32916,0,0,2.27602,-211.286,-217.907)">
        <path d="M352.1,161.277C285.078,148.776 277.918,139.136 276.83,127.714C289.097,104.032 326.495,119.691 352.1,161.277Z" style="fill:rgb(116,209,129);fill-rule:nonzero;stroke:black;stroke-width:1px;stroke-linecap:round;stroke-linejoin:round;"/>
    </g>
    <g transform="matrix(2.31653,0.242235,-0.230603,2.20529,-175.875,-277.703)">
        <path d="M205.292,169.099C227.474,125.591 262.996,106.334 277.126,128.955C276.959,140.428 271.094,151.255 205.292,169.099Z" style="fill:rgb(116,209,129);fill-rule:nonzero;stroke:black;stroke-width:1px;stroke-linecap:round;stroke-linejoin:round;"/>
    </g>
    <g transform="matrix(2.32916,0,0,2.32916,-79.3768,-56.3555)">
        <g transform="matrix(1,0,0,1,-45.3102,-78.5924)">
            <g transform="matrix(1,0,0,1,254.931,149.276)">
                <ellipse cx="0" cy="0" rx="11.236" ry="10.177" style="fill:rgb(170,83,0);stroke:black;stroke-width:1px;"/>
            </g>
            <g transform="matrix(0.669072,0,0,0.754541,248.024,144.817)">
                <ellipse cx="0" cy="0" rx="1.491" ry="1.285" style="stroke:black;stroke-width:1px;"/>
            </g>
            <g transform="matrix(0.669072,0,0,0.754541,252.37,145.892)">
                <ellipse cx="0" cy="0" rx="1.491" ry="1.285" style="stroke:black;stroke-width:1px;"/>
            </g>
            <g transform="matrix(0.669072,0,0,0.754541,252.175,141.839)">
                <ellipse cx="0" cy="0" rx="1.491" ry="1.285" style="stroke:black;stroke-width:1px;"/>
            </g>
        </g>
        <g transform="matrix(-1,0,0,1,488.013,-80.0195)">
            <g transform="matrix(1,0,0,1,254.931,149.276)">
                <ellipse cx="0" cy="0" rx="11.236" ry="10.177" style="fill:rgb(170,83,0);stroke:black;stroke-width:1px;"/>
            </g>
            <g transform="matrix(0.669072,0,0,0.754541,248.024,144.817)">
                <ellipse cx="0" cy="0" rx="1.491" ry="1.285" style="stroke:black;stroke-width:1px;"/>
            </g>
            <g transform="matrix(0.669072,0,0,0.754541,252.37,145.892)">
                <ellipse cx="0" cy="0" rx="1.491" ry="1.285" style="stroke:black;stroke-width:1px;"/>
            </g>
            <g transform="matrix(0.669072,0,0,0.754541,252.175,141.839)">
                <ellipse cx="0" cy="0" rx="1.491" ry="1.285" style="stroke:black;stroke-width:1px;"/>
            </g>
        </g>
        <g transform="matrix(1,0,0,1,-28.5649,-86.1305)">
            <g transform="matrix(1,0,0,1,254.931,149.276)">
                <ellipse cx="0" cy="0" rx="11.236" ry="10.177" style="fill:rgb(170,83,0);stroke:black;stroke-width:1px;"/>
            </g>
            <g transform="matrix(0.669072,0,0,0.754541,248.024,144.817)">
                <ellipse cx="0" cy="0" rx="1.491" ry="1.285" style="stroke:black;stroke-width:1px;"/>
            </g>
            <g transform="matrix(0.669072,0,0,0.754541,252.37,145.892)">
                <ellipse cx="0" cy="0" rx="1.491" ry="1.285" style="stroke:black;stroke-width:1px;"/>
            </g>
            <g transform="matrix(0.669072,0,0,0.754541,252.175,141.839)">
                <ellipse cx="0" cy="0" rx="1.491" ry="1.285" style="stroke:black;stroke-width:1px;"/>
            </g>
        </g>
    </g>
    <g transform="matrix(1.80704,0.127393,-0.163796,2.32339,47.0322,-157.202)">
        <path d="M139.595,76.846C183.745,55.97 223.629,62.442 220.986,88.981C213.841,97.959 202.581,102.943 139.595,76.846Z" style="fill:rgb(116,209,129);fill-rule:nonzero;stroke:black;stroke-width:1px;stroke-linejoin:round;"/>
    </g>
    <g transform="matrix(2.32916,0,0,2.32916,-208.805,-220.416)">
        <path d="M275.337,127.088C270.097,100.961 305.2,90.868 347.251,107.313C293.304,139.39 279.024,134.43 275.343,127.086L275.337,127.088Z" style="fill:rgb(116,209,129);fill-rule:nonzero;stroke:black;stroke-width:1px;stroke-linecap:round;stroke-linejoin:round;"/>
    </g>
    <g transform="matrix(2.29002,-0.425204,0.425205,2.29002,256.81,-179.514)">
        <path d="M77.586,377.895C81.097,376.827 84.484,375.291 87.746,373.287C92.473,370.383 96.938,366.498 101.141,361.631L106.189,379.616C114.789,376.998 122.761,371.57 130.105,363.331L135.152,381.278C143.752,378.661 151.843,373.244 159.426,365.029L164.474,382.976" style="fill:none;stroke:black;stroke-width:1px;stroke-linecap:round;stroke-linejoin:round;"/>
    </g>
    <g transform="matrix(2.3252,0.135892,-0.135893,2.32519,-108.029,-255.245)">
        <path d="M77.586,377.895C86.185,375.278 94.037,369.857 101.141,361.631L106.189,379.616C114.789,376.998 122.761,371.57 130.105,363.331L135.152,381.278C143.752,378.661 151.843,373.244 159.426,365.029L164.474,382.976" style="fill:none;fill-rule:nonzero;stroke:black;stroke-width:1px;stroke-linecap:round;stroke-linejoin:round;"/>
    </g>
    <g transform="matrix(0.125818,0,0,0.125818,-8.93448,-4.93645)">
        <path d="M462.1,4986.26C303.387,4959.15 179.711,4929.09 100.397,4896.29C838.414,3994.89 1981.15,3495.95 3142.92,3471.83C4259.84,3448.64 5394.35,3864.32 6203.69,4783.15C6147.42,4862.54 6086.69,4930.16 6021.47,4986.03C5962.07,4999.1 5896.36,5011.35 5824.85,5022.83L5708.05,4785.75C5637.83,4901.74 5558.39,4996.12 5469.74,5068.91C5411.84,5075.01 5351.86,5080.76 5290.02,5086.18L5175.15,4852.69C5115.09,4955.48 5046.94,5041.29 4970.72,5110.11L4970.62,5110.2C4037.58,5170.01 2807.79,5167.02 1805.05,5113.94L1764.43,4928.67C1693.22,4997.32 1620.55,5054.03 1546.42,5098.8C1451.84,5092.7 1359.91,5086.14 1271.18,5079.1L1224.39,4865.63C1146.28,4943.59 1065.67,5006.19 982.543,5053.45C897.322,5044.96 816.221,5035.97 739.842,5026.49L690.965,4802.93C617.627,4878.45 541.335,4939.56 462.1,4986.26Z" style="fill:rgb(255,230,160);stroke:black;stroke-width:18.5px;stroke-linecap:round;stroke-linejoin:round;"/>
    </g>
    <g transform="matrix(2.32916,0,0,2.32916,-188.607,-223.809)">
        <g transform="matrix(0.034798,0,0,0.034798,359.31,351.284)">
            <rect x="0" y="0" width="50" height="50"/>
        </g>
        <g transform="matrix(0.034798,0,0,0.034798,396.362,346.744)">
            <rect x="0" y="0" width="50" height="50"/>
        </g>
        <g transform="matrix(0.034798,0,0,0.034798,372.516,339.519)">
            <rect x="0" y="0" width="50" height="50"/>
        </g>
        <g transform="matrix(0.034798,0,0,0.034798,203.173,314.69)">
            <rect x="0" y="0" width="50" height="50"/>
        </g>
        <g transform="matrix(0.034798,0,0,0.034798,202.634,299.594)">
            <rect x="0" y="0" width="50" height="50"/>
        </g>
        <g transform="matrix(0.034798,0,0,0.034798,184.303,307.142)">
            <rect x="0" y="0" width="50" height="50"/>
        </g>
        <g transform="matrix(0.034798,0,0,0.034798,320.618,297.854)">
            <rect x="0" y="0" width="50" height="50"/>
        </g>
        <g transform="matrix(0.034798,0,0,0.034798,287.013,287.61)">
            <rect x="0" y="0" width="50" height="50"/>
        </g>
    </g>
    <g transform="matrix(2.32916,0,0,2.32916,-162.261,-254.891)">
        <path d="M141.094,335.31L133.057,341.28L124.17,337.179L127.467,343.552L120.873,349.047L130.764,348.168L131.204,355.751L136.808,349.047L146.046,350.168L138.298,343.787L141.094,335.31Z" style="fill:rgb(253,170,170);fill-rule:nonzero;stroke:black;stroke-width:1px;"/>
    </g>
</svg>
